<svg id="browser" xmlns="http://www.w3.org/2000/svg" width="60" height="60" viewBox="0 0 60 60">
  <g id="Group_2251" data-name="Group 2251">
    <g id="Group_2250" data-name="Group 2250">
      <path id="Path_8807" data-name="Path 8807" d="M53.75,0H6.25A6.257,6.257,0,0,0,0,6.25v47.5A6.258,6.258,0,0,0,6.25,60h47.5A6.257,6.257,0,0,0,60,53.75V6.25A6.257,6.257,0,0,0,53.75,0ZM57.5,53.75a3.75,3.75,0,0,1-3.75,3.75H6.25A3.75,3.75,0,0,1,2.5,53.75V6.25A3.75,3.75,0,0,1,6.25,2.5h47.5A3.75,3.75,0,0,1,57.5,6.25v47.5Z" fill="#003166"/>
    </g>
  </g>
  <g id="Group_2253" data-name="Group 2253" transform="translate(5 10)">
    <g id="Group_2252" data-name="Group 2252">
      <rect id="Rectangle_2045" data-name="Rectangle 2045" width="50" height="2.5" fill="#003166"/>
    </g>
  </g>
  <g id="Group_2255" data-name="Group 2255" transform="translate(6.25 5)">
    <g id="Group_2254" data-name="Group 2254">
      <rect id="Rectangle_2046" data-name="Rectangle 2046" width="2.5" height="2.5" fill="#003166"/>
    </g>
  </g>
  <g id="Group_2257" data-name="Group 2257" transform="translate(11.25 5)">
    <g id="Group_2256" data-name="Group 2256">
      <rect id="Rectangle_2047" data-name="Rectangle 2047" width="2.5" height="2.5" fill="#003166"/>
    </g>
  </g>
  <g id="Group_2259" data-name="Group 2259" transform="translate(51.25 5)">
    <g id="Group_2258" data-name="Group 2258">
      <rect id="Rectangle_2048" data-name="Rectangle 2048" width="2.5" height="2.5" fill="#003166"/>
    </g>
  </g>
  <g id="Group_2261" data-name="Group 2261" transform="translate(40 33.786)">
    <g id="Group_2260" data-name="Group 2260">
      <path id="Path_8808" data-name="Path 8808" d="M356.15,298.856l-6.25-10a1.3,1.3,0,0,0-2.125,0l-6.25,10a1.25,1.25,0,0,0,1.06,1.913h2.5v6.25a1.25,1.25,0,0,0,1.25,1.25h5a1.25,1.25,0,0,0,1.25-1.25v-6.25h2.5a1.25,1.25,0,0,0,1.065-1.913Zm-4.815-.588a1.25,1.25,0,0,0-1.25,1.25v6.25h-2.5v-6.25a1.25,1.25,0,0,0-1.25-1.25h-1.494l3.994-6.391,4,6.391Z" transform="translate(-341.335 -288.304)" fill="#003166"/>
    </g>
  </g>
  <g id="Group_2263" data-name="Group 2263" transform="translate(11.25 16.25)">
    <g id="Group_2262" data-name="Group 2262">
      <path id="Path_8809" data-name="Path 8809" d="M114.75,138.667a18.75,18.75,0,1,0,0,37.5v-2.5A16.25,16.25,0,1,1,131,157.417h2.5A18.75,18.75,0,0,0,114.75,138.667Z" transform="translate(-96 -138.667)" fill="#003166"/>
    </g>
  </g>
  <g id="Group_2265" data-name="Group 2265" transform="translate(22.5 26.25)">
    <g id="Group_2264" data-name="Group 2264">
      <path id="Path_8810" data-name="Path 8810" d="M207,230.25v-2.5a3.75,3.75,0,0,0-3.75-3.75h-7.5a3.75,3.75,0,0,0-3.75,3.75v2.5a3.75,3.75,0,0,0,3.75,3.75h7.5a1.25,1.25,0,0,1,1.25,1.25v2.5a1.25,1.25,0,0,1-1.25,1.25h-7.5a1.25,1.25,0,0,1-1.25-1.25v-2.5H192v2.5a3.75,3.75,0,0,0,3.75,3.75h7.5a3.75,3.75,0,0,0,3.75-3.75v-2.5a3.75,3.75,0,0,0-3.75-3.75h-7.5a1.25,1.25,0,0,1-1.25-1.25v-2.5a1.25,1.25,0,0,1,1.25-1.25h7.5a1.25,1.25,0,0,1,1.25,1.25v2.5Z" transform="translate(-192 -224)" fill="#003166"/>
    </g>
  </g>
  <g id="Group_2267" data-name="Group 2267" transform="translate(28.75 23.75)">
    <g id="Group_2266" data-name="Group 2266">
      <rect id="Rectangle_2049" data-name="Rectangle 2049" width="2.5" height="3.75" fill="#003166"/>
    </g>
  </g>
  <g id="Group_2269" data-name="Group 2269" transform="translate(28.75 42.5)">
    <g id="Group_2268" data-name="Group 2268">
      <rect id="Rectangle_2050" data-name="Rectangle 2050" width="2.5" height="3.75" fill="#003166"/>
    </g>
  </g>
</svg>
