<svg xmlns="http://www.w3.org/2000/svg" width="20" height="20" viewBox="0 0 20 20">
  <g id="checkmark" transform="translate(-0.001 -0.014)">
    <path id="Path_1650" data-name="Path 1650" d="M17.252,10.1,16.8,8.777l-4.827,5.037a2.426,2.426,0,0,1-3.535,0L4.9,10.119a2.688,2.688,0,0,1,0-3.688,2.426,2.426,0,0,1,3.535,0l1.774,1.85,4.753-4.959-.32-.948-.147-.92A1.694,1.694,0,0,0,13.5.147a1.577,1.577,0,0,0-1.591.19L9.594,2.086,7.253.332A1.587,1.587,0,0,0,5.66.149a1.7,1.7,0,0,0-.987,1.3L4.22,4.4l-2.839.492A1.653,1.653,0,0,0,.128,5.927,1.771,1.771,0,0,0,.311,7.587L1.987,10,.306,12.447A1.78,1.78,0,0,0,.13,14.109a1.652,1.652,0,0,0,1.249,1.03l2.822.474.472,2.961a1.694,1.694,0,0,0,.987,1.305,1.589,1.589,0,0,0,1.6-.188l2.316-1.749,2.336,1.749a1.579,1.579,0,0,0,1.591.19,1.7,1.7,0,0,0,.994-1.305l.454-2.945,2.838-.492a1.652,1.652,0,0,0,1.251-1.03,1.781,1.781,0,0,0-.18-1.668Zm0,0" transform="translate(0 0)" fill="#00265e"/>
    <path id="Path_1651" data-name="Path 1651" d="M153.725,53.792a.814.814,0,0,1-.589-.255l-3.542-3.7a.9.9,0,0,1,0-1.229.808.808,0,0,1,1.178,0l2.952,3.08,8.369-8.732a.808.808,0,0,1,1.178,0,.9.9,0,0,1,0,1.229l-8.958,9.347A.814.814,0,0,1,153.725,53.792Zm0,0" transform="translate(-143.516 -40.952)" fill="#f60"/>
  </g>
</svg>
