<svg xmlns="http://www.w3.org/2000/svg" width="50" height="50" viewBox="0 0 50 50">
  <g id="consistency" transform="translate(0)">
    <path id="Path_8812" data-name="Path 8812" d="M42.678,7.322A25,25,0,0,0,7.322,42.678,25,25,0,0,0,41.006,44.2l-.938-1.125a23.535,23.535,0,1,1,3.017-3.017L44.209,41A25,25,0,0,0,42.678,7.322Z" fill="#f60"/>
    <path id="Path_8813" data-name="Path 8813" d="M0,0H1.465V1.465H0Z" transform="translate(41.118 42.184) rotate(-45.648)" fill="#f60"/>
    <path id="Path_8814" data-name="Path 8814" d="M201.684,195.092a6.592,6.592,0,1,0-6.592,6.592A6.6,6.6,0,0,0,201.684,195.092Zm-11.719,0a5.127,5.127,0,1,1,5.127,5.127A5.133,5.133,0,0,1,189.965,195.092Z" transform="translate(-170.092 -170.092)" fill="#f60"/>
    <path id="Path_8815" data-name="Path 8815" d="M353.5,60h1.465v1.465H353.5Z" transform="translate(-318.978 -54.141)" fill="#f60"/>
    <path id="Path_8816" data-name="Path 8816" d="M323.5,45h1.465v1.465H323.5Z" transform="translate(-291.907 -40.605)" fill="#f60"/>
    <path id="Path_8817" data-name="Path 8817" d="M241.7,309.283a17.86,17.86,0,0,0,11.756-12.129l.264-.932h-4.745l-.173.488a13.39,13.39,0,0,1-7.1,7.687v-2.125l-7.524,4.837,7.524,4.837v-2.662Zm-1.465-1.1v1.078l-3.35-2.154,3.35-2.154v1.559l.977-.345A14.754,14.754,0,0,0,250,297.687h1.752a16.464,16.464,0,0,1-10.984,10.347Z" transform="translate(-211.31 -267.294)" fill="#f60"/>
    <path id="Path_8818" data-name="Path 8818" d="M296.222,77.693v4.746l.488.173a13.39,13.39,0,0,1,7.687,7.1h-2.126l4.837,7.524,4.837-7.524h-2.663a17.86,17.86,0,0,0-12.129-11.756Zm1.465,1.968a16.464,16.464,0,0,1,10.346,10.984l.151.533h1.078l-2.154,3.35-2.154-3.35h1.56l-.345-.977a14.754,14.754,0,0,0-8.483-8.788Z" transform="translate(-267.294 -70.106)" fill="#f60"/>
    <path id="Path_8819" data-name="Path 8819" d="M81.828,62.544a17.894,17.894,0,0,0-3.867,7.019l-.264.932h4.745l.173-.488a13.39,13.39,0,0,1,7.1-7.687v2.126l7.524-4.837-7.524-4.837v2.662A17.887,17.887,0,0,0,82.9,61.442l1,1.067a16.4,16.4,0,0,1,6.743-3.826l.533-.151V57.454l3.35,2.154-3.35,2.154V60.2l-.977.345a14.755,14.755,0,0,0-8.788,8.482H79.666a16.456,16.456,0,0,1,3.254-5.509Z" transform="translate(-70.11 -49.422)" fill="#f60"/>
    <path id="Path_8820" data-name="Path 8820" d="M57.435,241.7a17.86,17.86,0,0,0,12.129,11.756l.932.264v-4.746l-.488-.173a13.39,13.39,0,0,1-7.687-7.1h2.126l-4.837-7.524L54.773,241.7h2.662Zm2.174-4.815,2.154,3.35H60.2l.345.977A14.755,14.755,0,0,0,69.031,250v1.753A16.464,16.464,0,0,1,58.685,240.77l-.151-.533H57.456Z" transform="translate(-49.424 -211.309)" fill="#f60"/>
  </g>
</svg>
