<svg xmlns="http://www.w3.org/2000/svg" width="50" height="50" viewBox="0 0 50 50">
  <g id="consistency_1_" data-name="consistency (1)" transform="translate(0 -0.779)">
    <g id="Group_2250" data-name="Group 2250" transform="translate(0 0.779)">
      <path id="Path_8807" data-name="Path 8807" d="M33.722,117.895a1.212,1.212,0,0,0-1.374-.237,18.393,18.393,0,0,1-19.164-2.129.734.734,0,0,0-.9,1.158,19.855,19.855,0,0,0,20.531,2.374l2.375,2.382a23.157,23.157,0,0,1-13.846,2.422,22.792,22.792,0,0,1-13.135-6.549A23.156,23.156,0,0,1,5.532,87.871a1.217,1.217,0,0,0-.137-1.55l-.51-.511,5.643-.64-.638,5.66-.45-.451a1.21,1.21,0,0,0-1.891.227,20.122,20.122,0,0,0-2.826,12.1A19.746,19.746,0,0,0,9.69,114.254a.733.733,0,1,0,1.092-.98,18.286,18.286,0,0,1-4.6-10.695A18.65,18.65,0,0,1,8.634,91.648l.593.6a1.209,1.209,0,0,0,2.058-.722l.734-6.505a1.212,1.212,0,0,0-1.338-1.343L4.2,84.409a1.215,1.215,0,0,0-.72,2.064l.733.735a24.629,24.629,0,0,0,2.963,31.146,24.351,24.351,0,0,0,17.279,7.191,24.6,24.6,0,0,0,11.737-2.973,1.217,1.217,0,0,0,.279-1.926Z" transform="translate(0 -75.546)" fill="#f60"/>
      <path id="Path_8808" data-name="Path 8808" d="M167.569,39.117A24.629,24.629,0,0,0,164.606,7.97,24.244,24.244,0,0,0,150.634,1,24.614,24.614,0,0,0,135.59,3.752a1.217,1.217,0,0,0-.279,1.926l2.744,2.752a1.212,1.212,0,0,0,1.374.238,18.377,18.377,0,0,1,26.119,14.6,18.616,18.616,0,0,1-2.4,11.412l-.593-.6a1.209,1.209,0,0,0-2.058.722l-.734,6.505a1.209,1.209,0,0,0,1.338,1.343l6.486-.736a1.215,1.215,0,0,0,.72-2.064Zm-6.319,2.04.638-5.66.45.451a1.21,1.21,0,0,0,1.891-.227,19.989,19.989,0,0,0-2.9-24.458,19.867,19.867,0,0,0-22.36-4L136.59,4.883A23.157,23.157,0,0,1,150.435,2.46,22.792,22.792,0,0,1,163.57,9.009a23.156,23.156,0,0,1,2.676,29.445,1.217,1.217,0,0,0,.137,1.55l.51.511Z" transform="translate(-121.778 -0.779)" fill="#f60"/>
      <path id="Path_8809" data-name="Path 8809" d="M121.2,228.252a3,3,0,1,0,3-3.013A3.012,3.012,0,0,0,121.2,228.252Zm4.543,0a1.539,1.539,0,1,1-1.539-1.544A1.543,1.543,0,0,1,125.746,228.252Z" transform="translate(-109.367 -203.252)" fill="#f60"/>
      <path id="Path_8810" data-name="Path 8810" d="M332.268,225.239a3.013,3.013,0,1,0,3,3.013A3.012,3.012,0,0,0,332.268,225.239Zm0,4.557a1.544,1.544,0,1,1,1.539-1.544A1.543,1.543,0,0,1,332.268,229.8Z" transform="translate(-297.109 -203.252)" fill="#f60"/>
      <path id="Path_8811" data-name="Path 8811" d="M182.987,120.708a.736.736,0,0,0,.152-.447v-4.018a1.367,1.367,0,0,0-1.363-1.368H166.818a1.367,1.367,0,0,0-1.363,1.368v4.018a.736.736,0,0,0,.152.447l5.576,7.282a1.168,1.168,0,0,1,0,1.418l-5.576,7.282a.736.736,0,0,0-.152.447v4.018a1.367,1.367,0,0,0,1.363,1.368h14.957a1.367,1.367,0,0,0,1.363-1.368v-4.018a.736.736,0,0,0-.152-.447l-2.129-2.78a.733.733,0,1,0-1.162.9l1.224,1.6h-2.131l-1.163-1.519a4.19,4.19,0,0,0-6.657,0L169.8,136.4h-2.131l4.671-6.1c.041-.053.079-.108.115-.164l1.416.989a.731.731,0,0,0,.842,0l1.417-.99c.036.056.074.11.115.164l1.364,1.781a.733.733,0,1,0,1.162-.9l-1.364-1.781a1.168,1.168,0,0,1,0-1.418Zm-10.857,15.07a2.727,2.727,0,0,1,4.334,0l.478.624h-5.29Zm9.544,2.094v3.181H166.92v-3.181Zm-14-16.877h7.4a.735.735,0,0,0,0-1.469H166.92v-3.181h14.754v3.181H178.5a.735.735,0,0,0,0,1.469h2.424l-1.944,2.539h-9.359Zm8.576,6.1a2.632,2.632,0,0,0-.54,1.551l-1.412.987-1.412-.987a2.632,2.632,0,0,0-.54-1.551l-1.6-2.092h7.108Z" transform="translate(-149.297 -103.699)" fill="#f60"/>
    </g>
  </g>
</svg>
