<svg xmlns="http://www.w3.org/2000/svg" width="50" height="50" viewBox="0 0 50 50">
  <g id="return-of-investment" transform="translate(-1 -1)">
    <path id="Path_8821" data-name="Path 8821" d="M32.032,35.789a3.219,3.219,0,0,0-.806-6.337,1.613,1.613,0,1,1,1.613-1.613h1.613a3.222,3.222,0,0,0-2.419-3.111V23H30.419v1.727a3.219,3.219,0,0,0,.806,6.337,1.613,1.613,0,1,1-1.613,1.613H28a3.222,3.222,0,0,0,2.419,3.111v1.727h1.613Z" transform="translate(-5.226 -4.258)" fill="#f60"/>
    <path id="Path_8822" data-name="Path 8822" d="M29.484,19A10.5,10.5,0,0,0,19,29.484h1.613a8.881,8.881,0,0,1,8.871-8.871Z" transform="translate(-3.484 -3.484)" fill="#f60"/>
    <path id="Path_8823" data-name="Path 8823" d="M40.871,32A8.881,8.881,0,0,1,32,40.871v1.613A10.5,10.5,0,0,0,42.484,32Z" transform="translate(-6 -6)" fill="#f60"/>
    <path id="Path_8824" data-name="Path 8824" d="M19.99,8.164a20.886,20.886,0,0,0-6.709,4.671l1.16,1.12a19.316,19.316,0,0,1,6.194-4.314Z" transform="translate(-2.377 -1.387)" fill="#f60"/>
    <path id="Path_8825" data-name="Path 8825" d="M25.358,6.754c-.568.14-1.132.3-1.679.489L24.2,8.771c.5-.17,1.024-.322,1.547-.452Z" transform="translate(-4.389 -1.114)" fill="#f60"/>
    <path id="Path_8826" data-name="Path 8826" d="M29.519,6.082c-.551.044-1.115.111-1.677.2L28.1,7.876c.519-.084,1.04-.146,1.548-.185Z" transform="translate(-5.195 -0.984)" fill="#f60"/>
    <path id="Path_8827" data-name="Path 8827" d="M26,2.613a23.233,23.233,0,0,1,16.537,6.85.83.83,0,0,0,1.14,0l1.677-1.677V13.9H39.237l1.59-1.59a.806.806,0,0,0,0-1.14A20.83,20.83,0,0,0,26,5.032V6.645a19.216,19.216,0,0,1,13.1,5.11L36.72,14.14a.806.806,0,0,0,.57,1.377h8.871a.806.806,0,0,0,.806-.806V5.839a.806.806,0,0,0-1.377-.57L43.1,7.761A25,25,0,0,0,1,26H2.613A23.414,23.414,0,0,1,26,2.613Z" fill="#f60"/>
    <path id="Path_8828" data-name="Path 8828" d="M48.955,49.775l-1.16-1.12A19.316,19.316,0,0,1,41.6,52.969l.646,1.477A20.9,20.9,0,0,0,48.955,49.775Z" transform="translate(-7.858 -9.224)" fill="#f60"/>
    <path id="Path_8829" data-name="Path 8829" d="M38.146,56.762c.568-.14,1.132-.3,1.679-.489l-.518-1.528c-.5.17-1.024.322-1.547.452Z" transform="translate(-7.115 -10.402)" fill="#f60"/>
    <path id="Path_8830" data-name="Path 8830" d="M34.048,57.488c.551-.044,1.115-.111,1.677-.2l-.255-1.593c-.519.084-1.04.146-1.548.185Z" transform="translate(-6.372 -10.586)" fill="#f60"/>
    <path id="Path_8831" data-name="Path 8831" d="M50.355,32A23.387,23.387,0,0,1,10.431,48.537a.83.83,0,0,0-1.14,0L7.613,50.215V44.1h6.118l-1.59,1.59a.806.806,0,0,0,0,1.14,20.83,20.83,0,0,0,14.827,6.141V51.355a19.216,19.216,0,0,1-13.1-5.11l2.384-2.384a.806.806,0,0,0-.57-1.377H6.806A.806.806,0,0,0,6,43.29v8.871a.806.806,0,0,0,1.377.57l2.493-2.493A25,25,0,0,0,51.968,32Z" transform="translate(-0.968 -6)" fill="#f60"/>
    <path id="Path_8832" data-name="Path 8832" d="M42.419,28.71a13.71,13.71,0,1,0-13.71,13.71A13.725,13.725,0,0,0,42.419,28.71Zm-13.71,12.1a12.1,12.1,0,1,1,12.1-12.1A12.111,12.111,0,0,1,28.71,40.806Z" transform="translate(-2.71 -2.71)" fill="#f60"/>
  </g>
</svg>
