<svg id="control" xmlns="http://www.w3.org/2000/svg" width="60" height="60" viewBox="0 0 60 60">
  <g id="Group_2271" data-name="Group 2271">
    <g id="Group_2270" data-name="Group 2270">
      <path id="Path_8811" data-name="Path 8811" d="M53.75,0H6.25A6.257,6.257,0,0,0,0,6.25v47.5A6.258,6.258,0,0,0,6.25,60h47.5A6.257,6.257,0,0,0,60,53.75V6.25A6.257,6.257,0,0,0,53.75,0ZM57.5,53.75a3.75,3.75,0,0,1-3.75,3.75H6.25A3.75,3.75,0,0,1,2.5,53.75V6.25A3.75,3.75,0,0,1,6.25,2.5h47.5A3.75,3.75,0,0,1,57.5,6.25v47.5Z" fill="#00265e"/>
    </g>
  </g>
  <g id="Group_2273" data-name="Group 2273" transform="translate(5 10)">
    <g id="Group_2272" data-name="Group 2272">
      <rect id="Rectangle_2051" data-name="Rectangle 2051" width="50" height="2.5" fill="#00265e"/>
    </g>
  </g>
  <g id="Group_2275" data-name="Group 2275" transform="translate(6.25 5)">
    <g id="Group_2274" data-name="Group 2274">
      <rect id="Rectangle_2052" data-name="Rectangle 2052" width="2.5" height="2.5" fill="#00265e"/>
    </g>
  </g>
  <g id="Group_2277" data-name="Group 2277" transform="translate(11.25 5)">
    <g id="Group_2276" data-name="Group 2276">
      <rect id="Rectangle_2053" data-name="Rectangle 2053" width="2.5" height="2.5" fill="#00265e"/>
    </g>
  </g>
  <g id="Group_2279" data-name="Group 2279" transform="translate(51.25 5)">
    <g id="Group_2278" data-name="Group 2278">
      <rect id="Rectangle_2054" data-name="Rectangle 2054" width="2.5" height="2.5" fill="#00265e"/>
    </g>
  </g>
  <g id="Group_2281" data-name="Group 2281" transform="translate(28.75 46.25)">
    <g id="Group_2280" data-name="Group 2280">
      <rect id="Rectangle_2055" data-name="Rectangle 2055" width="2.5" height="6.25" fill="#00265e"/>
    </g>
  </g>
  <g id="Group_2283" data-name="Group 2283" transform="translate(13.75 17.5)">
    <g id="Group_2282" data-name="Group 2282">
      <rect id="Rectangle_2056" data-name="Rectangle 2056" width="2.5" height="7.5" fill="#00265e"/>
    </g>
  </g>
  <g id="Group_2285" data-name="Group 2285" transform="translate(28.75 17.5)">
    <g id="Group_2284" data-name="Group 2284">
      <rect id="Rectangle_2057" data-name="Rectangle 2057" width="2.5" height="21.25" fill="#00265e"/>
    </g>
  </g>
  <g id="Group_2287" data-name="Group 2287" transform="translate(43.75 17.5)">
    <g id="Group_2286" data-name="Group 2286">
      <rect id="Rectangle_2058" data-name="Rectangle 2058" width="2.5" height="12.5" fill="#00265e"/>
    </g>
  </g>
  <g id="Group_2289" data-name="Group 2289" transform="translate(13.75 32.5)">
    <g id="Group_2288" data-name="Group 2288">
      <rect id="Rectangle_2059" data-name="Rectangle 2059" width="2.5" height="20" fill="#00265e"/>
    </g>
  </g>
  <g id="Group_2291" data-name="Group 2291" transform="translate(10 23.75)">
    <g id="Group_2290" data-name="Group 2290">
      <path id="Path_8812" data-name="Path 8812" d="M92.833,202.667h-5a2.5,2.5,0,0,0-2.5,2.5v5a2.5,2.5,0,0,0,2.5,2.5h5a2.5,2.5,0,0,0,2.5-2.5v-5A2.5,2.5,0,0,0,92.833,202.667Zm0,7.5h-5v-5h5Z" transform="translate(-85.333 -202.667)" fill="#00265e"/>
    </g>
  </g>
  <g id="Group_2293" data-name="Group 2293" transform="translate(25 37.5)">
    <g id="Group_2292" data-name="Group 2292">
      <path id="Path_8813" data-name="Path 8813" d="M220.833,320h-5a2.5,2.5,0,0,0-2.5,2.5v5a2.5,2.5,0,0,0,2.5,2.5h5a2.5,2.5,0,0,0,2.5-2.5v-5A2.5,2.5,0,0,0,220.833,320Zm0,7.5h-5v-5h5Z" transform="translate(-213.333 -320)" fill="#00265e"/>
    </g>
  </g>
  <g id="Group_2297" data-name="Group 2297" transform="translate(43.75 37.5)">
    <g id="Group_2296" data-name="Group 2296">
      <rect id="Rectangle_2060" data-name="Rectangle 2060" width="2.5" height="15" fill="#00265e"/>
    </g>
  </g>
  <g id="Group_2295" data-name="Group 2295" transform="translate(40 28.75)">
    <g id="Group_2294" data-name="Group 2294">
      <path id="Path_8814" data-name="Path 8814" d="M348.833,245.333h-5a2.5,2.5,0,0,0-2.5,2.5v5a2.5,2.5,0,0,0,2.5,2.5h5a2.5,2.5,0,0,0,2.5-2.5v-5A2.5,2.5,0,0,0,348.833,245.333Zm0,7.5h-5v-5h5Z" transform="translate(-341.333 -245.333)" fill="#00265e"/>
    </g>
  </g>
</svg>
