<svg id="Group_2411" data-name="Group 2411" xmlns="http://www.w3.org/2000/svg" width="80" height="80" viewBox="0 0 80 80">
  <path id="Path_309" data-name="Path 309" d="M79.625,54.44,68.039,45.072V31.388a2.8,2.8,0,0,0-2.207-2.632H15.079a2.8,2.8,0,0,0-2.207,2.632V44.967L.827,54.44A2.41,2.41,0,0,0,0,56.124v50a2.883,2.883,0,0,0,2.3,2.632H78.613c1.011,0,1.379-1.368,1.379-2.632v-50C79.993,55.493,80.084,54.861,79.625,54.44ZM68.039,50.124l7.907,6.21-7.907,6.842ZM16.55,32.967H64.362V66.44L40.456,87.072,16.55,66.44V32.967ZM12.872,50.019V63.283L4.965,56.335ZM3.678,60.651,29.423,82.967,3.678,102.861Zm4.413,43.895L32.549,85.7l6.528,5.684a2.04,2.04,0,0,0,1.287.526c.368,0,.552-.211.919-.526l6.8-6,24.733,19.158Zm68.223-2.421L51.122,82.756,76.315,60.651Z" transform="translate(0 -28.756)" fill="#ff4a17"/>
  <path id="Path_310" data-name="Path 310" d="M137.676,100.885h8.275a2.125,2.125,0,0,0,0-4.211h-8.275a2.125,2.125,0,0,0,0,4.211Z" transform="translate(-111.931 -82.99)" fill="#ff4a17"/>
  <path id="Path_311" data-name="Path 311" d="M137.676,147.906H167.1a2.125,2.125,0,0,0,0-4.211H137.676a2.125,2.125,0,0,0,0,4.211Z" transform="translate(-111.931 -120.537)" fill="#ff4a17"/>
  <path id="Path_312" data-name="Path 312" d="M168.937,192.82a1.986,1.986,0,0,0-1.839-2.105H137.676a2.125,2.125,0,0,0,0,4.211H167.1A1.986,1.986,0,0,0,168.937,192.82Z" transform="translate(-111.931 -158.083)" fill="#ff4a17"/>
</svg>
