<svg xmlns="http://www.w3.org/2000/svg" width="70" height="70" viewBox="0 0 70 70">
  <g id="data-scientist" transform="translate(-1 -1)">
    <path id="Path_1588" data-name="Path 1588" d="M66.484,37.129V26.968a5.652,5.652,0,0,0-5.645-5.645H31.484a5.572,5.572,0,0,0-2.455.586A14.529,14.529,0,0,0,22.8,17.633a9.034,9.034,0,1,0-9.705.011,14.69,14.69,0,0,0-9.835,13.84v5.645H1V71H71V37.129ZM38.258,55.194V50.677H54.065v4.516Zm-6.774-6.774A3.391,3.391,0,0,1,28.1,45.032V43.9H64.226v1.129a3.391,3.391,0,0,1-3.387,3.387ZM60.839,23.581a3.391,3.391,0,0,1,3.387,3.387V41.645H28.1V26.968a3.391,3.391,0,0,1,3.387-3.387ZM11.161,10.032a6.774,6.774,0,1,1,6.774,6.774A6.781,6.781,0,0,1,11.161,10.032ZM5.516,31.484A12.434,12.434,0,0,1,17.935,19.065a12.3,12.3,0,0,1,9.305,4.22,5.6,5.6,0,0,0-1.4,3.683V37.129H11.161V26.968H8.9V37.129H5.516Zm20.323,7.9v5.645a5.652,5.652,0,0,0,5.645,5.645H36v4.516H31.484v2.258H60.839V55.194H56.323V50.677h4.516a5.652,5.652,0,0,0,5.645-5.645V39.387h2.258V61.968H3.258V39.387ZM3.258,68.742V64.226H68.742v4.516Z" fill="#041b52"/>
    <path id="Path_1589" data-name="Path 1589" d="M15.161,55.065c3.432,0,10.161-1.364,10.161-4.516V41.516c0-3.152-6.729-4.516-10.161-4.516S5,38.364,5,41.516v9.032C5,53.7,11.729,55.065,15.161,55.065Zm0-2.258c-3.882,0-7.683-1.531-7.9-2.258V48.816a19.373,19.373,0,0,0,7.9,1.732,19.362,19.362,0,0,0,7.905-1.733v1.707c-.222.753-4.024,2.284-7.905,2.284Zm0-13.548c3.838,0,7.6,1.5,7.9,2.258-.3.761-4.06,2.258-7.9,2.258-3.874,0-7.665-1.525-7.9-2.226v-.01c.238-.754,4.03-2.28,7.9-2.28ZM7.258,44.3a19.373,19.373,0,0,0,7.9,1.732,19.374,19.374,0,0,0,7.9-1.732v1.708c-.23.754-4.026,2.282-7.9,2.282s-7.683-1.531-7.9-2.258Z" transform="translate(0.516 4.645)" fill="#fe354d"/>
    <path id="Path_1590" data-name="Path 1590" d="M29.387,12.29a3.366,3.366,0,0,0,1.875-.57L35.2,14.675a3.316,3.316,0,0,0-.169,1,3.387,3.387,0,0,0,6.774,0,3.332,3.332,0,0,0-.34-1.451L46,9.694a3.274,3.274,0,0,0,2.9,0l2.275,2.275a3.356,3.356,0,0,0-.339,1.452,3.387,3.387,0,0,0,6.774,0,3.332,3.332,0,0,0-.34-1.451l4.533-4.533a3.355,3.355,0,0,0,1.452.339,3.387,3.387,0,1,0-3.387-3.387,3.332,3.332,0,0,0,.34,1.451l-4.533,4.533a3.274,3.274,0,0,0-2.9,0L50.5,8.1a3.356,3.356,0,0,0,.339-1.452,3.387,3.387,0,1,0-6.774,0A3.332,3.332,0,0,0,44.4,8.1l-4.533,4.533a3.331,3.331,0,0,0-3.327.231L32.6,9.906a3.316,3.316,0,0,0,.169-1,3.387,3.387,0,1,0-3.387,3.387ZM63.258,3.258a1.129,1.129,0,1,1-1.129,1.129A1.131,1.131,0,0,1,63.258,3.258Zm-7.9,10.161a1.129,1.129,0,1,1-1.129-1.129A1.131,1.131,0,0,1,55.355,13.419Zm-7.9-7.9a1.129,1.129,0,1,1-1.129,1.129A1.131,1.131,0,0,1,47.452,5.516Zm-9.032,9.032a1.129,1.129,0,1,1-1.129,1.129A1.131,1.131,0,0,1,38.419,14.548ZM29.387,7.774A1.129,1.129,0,1,1,28.258,8.9,1.131,1.131,0,0,1,29.387,7.774Z" transform="translate(3.226 0)" fill="#fe354d"/>
    <path id="Path_1591" data-name="Path 1591" d="M57.355,34.29H55.1V23H48.323V34.29H46.065V27.516H39.29V34.29H37.032V25.258H30.258V34.29H28v2.258H57.355Zm-6.774-9.032h2.258V34.29H50.581Zm-9.032,4.516h2.258V34.29H41.548Zm-9.032-2.258h2.258V34.29H32.516Z" transform="translate(3.484 2.839)" fill="#fe354d"/>
  </g>
</svg>
