<svg xmlns="http://www.w3.org/2000/svg" width="70" height="70" viewBox="0 0 70 70">
  <g id="rating" transform="translate(-0.344)">
    <path id="Path_1596" data-name="Path 1596" d="M133.344,193.991l-9.223-2.582v-2.27a9.078,9.078,0,0,0,2.8-3.647h.684a4.584,4.584,0,0,0,4.646-4.51v-6.765a13.944,13.944,0,0,0-27.876,0v6.765a4.584,4.584,0,0,0,4.646,4.51h.685a9.082,9.082,0,0,0,2.8,3.647v2.27l-9.222,2.582a7.967,7.967,0,0,0-5.877,7.583v6.467h41.815v-6.467a7.966,7.966,0,0,0-5.877-7.583Zm-8.293.025-1.567,5.322-3.431-2.665,3.244-3.149Zm-7.181,9.516h.888l1.162,2.255h-3.211ZM119,201.276h-1.362l-1.452-1.409,2.132-1.656,2.133,1.656Zm8.611-18.04h-.08a8.812,8.812,0,0,0,.08-1.127v-3.382a2.256,2.256,0,1,1,0,4.51Zm-9.292-20.294a11.461,11.461,0,0,1,11.615,11.275V177.1a4.7,4.7,0,0,0-2.323-.627v-.646a3.928,3.928,0,0,0-3.98-3.864,4.106,4.106,0,0,0-1.781.408l-2.578,1.251a5.994,5.994,0,0,1-2.6.6h-4.162a3.474,3.474,0,0,0-3.271,2.255h-.214a4.7,4.7,0,0,0-2.323.627v-2.882a11.462,11.462,0,0,1,11.615-11.275Zm-9.292,20.294a2.256,2.256,0,1,1,0-4.51v3.382a8.812,8.812,0,0,0,.081,1.127Zm2.323-1.127V177.6a1.146,1.146,0,0,1,1.162-1.127h4.162a8.385,8.385,0,0,0,3.637-.833l2.578-1.251a1.7,1.7,0,0,1,.742-.17,1.634,1.634,0,0,1,1.657,1.608v6.283a6.972,6.972,0,0,1-13.938,0Zm6.969,9.02a9.471,9.471,0,0,0,3.485-.664v1.325l-3.485,3.382-3.485-3.382v-1.325A9.476,9.476,0,0,0,118.314,191.129Zm-4.982,2.395,3.244,3.149-3.431,2.665-1.567-5.322Zm-13.6,8.05a5.693,5.693,0,0,1,4.2-5.417l5.417-1.517,2.524,8.575,2.487-1.932,1.383,1.342-1.627,3.16H106.7V202.4h-2.323v3.382H99.73Zm37.168,4.212h-4.646V202.4h-2.323v3.382h-7.413l-1.627-3.16,1.383-1.342,2.487,1.932,2.524-8.575,5.417,1.517a5.691,5.691,0,0,1,4.2,5.417Zm0,0" transform="translate(-82.97 -138.041)" fill="#fe354d"/>
    <path id="Path_1597" data-name="Path 1597" d="M194.013,13.9l5.461-3.32,5.462,3.32-1.79-5.912L206.6,5.2l-4.9-1.236L199.474,0l-2.227,3.959-4.9,1.236,3.451,2.8ZM198.8,5.9l.67-1.192.67,1.191,1.5.379-1.155.936.493,1.629-1.508-.916-1.507.917.492-1.629L197.3,6.274Zm0,0" transform="translate(-164.13 0)" fill="#041b52"/>
    <path id="Path_1598" data-name="Path 1598" d="M295.474,48l-2.227,3.959-4.9,1.236,3.451,2.8-1.79,5.912,5.461-3.32,5.462,3.32-1.79-5.912,3.451-2.8-4.9-1.236Zm1.508,8.839-1.508-.917-1.507.917.492-1.629-1.154-.936,1.5-.379.67-1.192.67,1.191,1.5.379-1.155.936Zm0,0" transform="translate(-246.192 -41.235)" fill="#041b52"/>
    <path id="Path_1599" data-name="Path 1599" d="M398.6,5.194l-4.9-1.237L391.474,0l-2.227,3.959-4.9,1.236,3.451,2.8-1.79,5.912,5.461-3.32,5.462,3.32-1.79-5.912Zm-5.616,3.645-1.508-.917-1.507.917.492-1.629L389.3,6.274l1.5-.379.67-1.192.67,1.191,1.5.379-1.155.936Zm0,0" transform="translate(-328.254)" fill="#041b52"/>
    <path id="Path_1600" data-name="Path 1600" d="M98.013,61.9l5.461-3.32,5.462,3.32-1.79-5.912,3.451-2.8-4.9-1.236L103.474,48l-2.227,3.959-4.9,1.236,3.451,2.8ZM102.8,53.9l.67-1.192.67,1.191,1.5.379-1.155.936.493,1.629-1.508-.916-1.507.917.492-1.629-1.154-.936Zm0,0" transform="translate(-82.068 -41.235)" fill="#041b52"/>
    <path id="Path_1601" data-name="Path 1601" d="M7.467,10.584l5.462,3.32-1.79-5.912L14.59,5.2l-4.9-1.236L7.467,0,5.241,3.959.344,5.194l3.451,2.8L2,13.9ZM6.8,5.9,7.467,4.7l.67,1.191,1.5.379-1.155.936.493,1.629L7.467,7.923,5.96,8.839,6.452,7.21,5.3,6.274Zm0,0" transform="translate(0 0)" fill="#041b52"/>
    <path id="Path_1602" data-name="Path 1602" d="M400.375,132.07a3.486,3.486,0,1,0-3.485,3.382,3.506,3.506,0,0,0,.491-.048,27.448,27.448,0,0,1-.356,25.606l2.055,1.055a29.645,29.645,0,0,0,.359-27.705,3.305,3.305,0,0,0,.936-2.29Zm-4.646,0a1.162,1.162,0,1,1,1.162,1.127A1.147,1.147,0,0,1,395.729,132.07Zm0,0" transform="translate(-335.994 -110.551)" fill="#041b52"/>
    <path id="Path_1603" data-name="Path 1603" d="M31.214,190.475a3.5,3.5,0,0,0-.49.048,27.444,27.444,0,0,1,.356-25.606l-2.054-1.054a29.643,29.643,0,0,0-.361,27.706,3.307,3.307,0,0,0-.935,2.289,3.486,3.486,0,1,0,3.485-3.382Zm0,4.51a1.128,1.128,0,1,1,1.162-1.127A1.146,1.146,0,0,1,31.214,194.985Zm0,0" transform="translate(-21.424 -140.77)" fill="#041b52"/>
  </g>
</svg>
