<svg xmlns="http://www.w3.org/2000/svg" width="70" height="70" viewBox="0 0 70 70">
  <g id="analytics" transform="translate(-0.469)">
    <path id="Path_1552" data-name="Path 1552" d="M231.255,224.129l-3.659-.915a15.845,15.845,0,0,0-1.212-2.917l1.942-3.236a1.168,1.168,0,0,0-.175-1.426l-3.642-3.646a1.167,1.167,0,0,0-1.426-.175l-3.236,1.942c-.42-.225-.852-.433-1.292-.622a15.951,15.951,0,0,0-1.633-.59l-.915-3.659a1.166,1.166,0,0,0-1.131-.884h-5.147a1.167,1.167,0,0,0-1.132.884l-.914,3.659a15.829,15.829,0,0,0-2.917,1.212l-3.236-1.942a1.167,1.167,0,0,0-1.426.175l-3.646,3.642a1.167,1.167,0,0,0-.175,1.426l1.942,3.236a15.79,15.79,0,0,0-1.212,2.917l-3.659.914a1.167,1.167,0,0,0-.884,1.132v5.15a1.166,1.166,0,0,0,.884,1.131l3.659.915a15.823,15.823,0,0,0,1.212,2.917l-1.942,3.236a1.167,1.167,0,0,0,.175,1.426l3.642,3.642a1.167,1.167,0,0,0,1.425.175l3.236-1.942a15.861,15.861,0,0,0,2.917,1.212l.915,3.659a1.168,1.168,0,0,0,1.132.885h5.15a1.167,1.167,0,0,0,1.132-.885l.915-3.659a15.861,15.861,0,0,0,2.917-1.212l3.236,1.942a1.168,1.168,0,0,0,1.426-.175l3.641-3.642a1.167,1.167,0,0,0,.175-1.426l-1.942-3.236a15.862,15.862,0,0,0,1.212-2.917l3.659-.915a1.166,1.166,0,0,0,.884-1.131v-5.146A1.166,1.166,0,0,0,231.255,224.129Zm-1.449,5.37-3.434.859a1.166,1.166,0,0,0-.849.845,13.514,13.514,0,0,1-1.492,3.6,1.169,1.169,0,0,0,0,1.2l1.823,3.034-2.348,2.358-3.034-1.823a1.166,1.166,0,0,0-1.2,0,13.524,13.524,0,0,1-3.6,1.491,1.166,1.166,0,0,0-.845.849l-.866,3.432H210.64l-.859-3.434a1.167,1.167,0,0,0-.845-.849,13.526,13.526,0,0,1-3.6-1.492,1.168,1.168,0,0,0-1.2,0l-3.034,1.823-2.358-2.348L200.574,236a1.166,1.166,0,0,0,0-1.2,13.524,13.524,0,0,1-1.491-3.6,1.167,1.167,0,0,0-.849-.845L194.8,229.5v-3.327l3.434-.859a1.167,1.167,0,0,0,.849-.845,13.513,13.513,0,0,1,1.491-3.6,1.167,1.167,0,0,0,0-1.2l-1.823-3.034,2.349-2.358,3.034,1.823a1.166,1.166,0,0,0,1.2,0,13.524,13.524,0,0,1,3.6-1.491,1.167,1.167,0,0,0,.845-.849l.865-3.432h3.328l.859,3.434a1.167,1.167,0,0,0,.844.849,13.462,13.462,0,0,1,3.6,1.49,1.169,1.169,0,0,0,1.2,0l3.033-1.823,2.358,2.35-1.823,3.034a1.168,1.168,0,0,0,0,1.2,13.525,13.525,0,0,1,1.492,3.6,1.166,1.166,0,0,0,.849.845l3.432.866Zm0,0" transform="translate(-161.662 -177.663)" fill="#041b52"/>
    <path id="Path_1553" data-name="Path 1553" d="M273.8,280a9.335,9.335,0,1,0,9.335,9.335A9.334,9.334,0,0,0,273.8,280Zm0,16.335a7,7,0,1,1,7-7A7,7,0,0,1,273.8,296.335Zm0,0" transform="translate(-223.661 -239.161)" fill="#fe354d"/>
    <path id="Path_1554" data-name="Path 1554" d="M368.469,96H370.8v18.669h-2.334Zm0,0" transform="translate(-312.409 -81.998)" fill="#fe354d"/>
    <path id="Path_1555" data-name="Path 1555" d="M5.316,59.508v4.667a1.19,1.19,0,0,0,1.212,1.167H31.973V63.008H7.739v-3.5H22.28a1.254,1.254,0,0,0,.541-.117l4.847-2.334a1.148,1.148,0,0,0,0-2.089l-4.847-2.334a1.251,1.251,0,0,0-.541-.128H7.739V12.835H53.784a4.76,4.76,0,0,0,4.847-4.667V5.834a1.19,1.19,0,0,0-1.212-1.167H53.784V7h2.423V8.168a2.425,2.425,0,0,1-4.847,0v-3.5a2.38,2.38,0,0,1,2.423-2.334h4.847a2.38,2.38,0,0,1,2.423,2.334V31.5h2.423V4.667A4.76,4.76,0,0,0,58.631,0H5.316A4.759,4.759,0,0,0,.469,4.667v3.5a4.759,4.759,0,0,0,4.847,4.667V52.507H4.1a3.5,3.5,0,1,0,0,7ZM2.892,8.168v-3.5A2.38,2.38,0,0,1,5.316,2.334H49.61a4.49,4.49,0,0,0-.673,2.334v3.5A4.489,4.489,0,0,0,49.61,10.5H5.316A2.38,2.38,0,0,1,2.892,8.168Zm21.524,47.84-2.423,1.167h-.925V54.84h.925Zm-21.524,0A1.19,1.19,0,0,1,4.1,54.84H18.644v2.334H4.1A1.19,1.19,0,0,1,2.892,56.007Zm0,0" transform="translate(0)" fill="#041b52"/>
    <path id="Path_1556" data-name="Path 1556" d="M.469,120H2.8v23.336H.469Zm0,0" transform="translate(0 -102.498)" fill="#fe354d"/>
    <path id="Path_1557" data-name="Path 1557" d="M106.989,114.326v-2.334H91.82a1.167,1.167,0,0,0-.825.342l-2.132,2.132a12.793,12.793,0,0,0-16.62,1.284,1.167,1.167,0,0,0,0,1.649l8.251,8.251a1.167,1.167,0,0,0,.825.344H92.987a1.167,1.167,0,0,0,1.167-1.167,12.78,12.78,0,0,0-3.534-8.819l1.683-1.682Zm-15.234,9.335H81.8l-7.039-7.039a10.466,10.466,0,0,1,12.428-.484l-3.2,3.2,1.65,1.65,3.332-3.332A10.461,10.461,0,0,1,91.755,123.661Zm0,0" transform="translate(-60.268 -95.657)" fill="#fe354d"/>
    <path id="Path_1558" data-name="Path 1558" d="M328.469,112H330.8v2.334h-2.334Zm0,0" transform="translate(-278.451 -95.665)" fill="#fe354d"/>
    <path id="Path_1559" data-name="Path 1559" d="M88.469,232H90.8v2.334H88.469Zm0,0" transform="translate(-74.706 -198.162)" fill="#fe354d"/>
    <path id="Path_1560" data-name="Path 1560" d="M120.469,232h11.668v2.334H120.469Zm0,0" transform="translate(-101.768 -198.162)" fill="#fe354d"/>
    <path id="Path_1561" data-name="Path 1561" d="M72.469,264H91.138v2.334H72.469Zm0,0" transform="translate(-60.998 -225.495)" fill="#fe354d"/>
    <path id="Path_1562" data-name="Path 1562" d="M248.469,144H250.8v2.334h-2.334Zm0,0" transform="translate(-210.536 -122.997)" fill="#fe354d"/>
    <path id="Path_1563" data-name="Path 1563" d="M280.469,144H289.8v2.334h-9.335Zm0,0" transform="translate(-237.527 -122.997)" fill="#fe354d"/>
    <path id="Path_1564" data-name="Path 1564" d="M248.469,176h14v2.334h-14Zm0,0" transform="translate(-210.255 -150.33)" fill="#fe354d"/>
    <path id="Path_1565" data-name="Path 1565" d="M72.469,296H87.637v2.334H72.469Zm0,0" transform="translate(-61.032 -252.828)" fill="#fe354d"/>
  </g>
</svg>
