<svg xmlns="http://www.w3.org/2000/svg" width="70" height="70" viewBox="0 0 70 70">
  <g id="briefing" transform="translate(-0.499 0)">
    <path id="Path_1577" data-name="Path 1577" d="M47.827,17.4a4.586,4.586,0,0,0-5.689,0,3.005,3.005,0,0,0,0,4.773l6.853,5.75a4.586,4.586,0,0,0,5.689,0L69.321,15.639a3.006,3.006,0,0,0,0-4.773,4.586,4.586,0,0,0-5.689,0L62.018,12.22a16.6,16.6,0,0,0-3.9-1.824V8.86c0-1.861-1.8-3.375-4.022-3.375H41.483V4.313C41.483,1.935,39.176,0,36.342,0H22.275c-2.834,0-5.141,1.935-5.141,4.313V9.187a2.66,2.66,0,0,0,2.856,2.4H38.626a2.66,2.66,0,0,0,2.856-2.4V7.539H54.1A1.467,1.467,0,0,1,55.67,8.86v.946a18.435,18.435,0,0,0-3.082-.262c-8.573,0-15.549,5.852-15.549,13.045s6.975,13.045,15.549,13.045a18.559,18.559,0,0,0,3.082-.257V66.626A1.466,1.466,0,0,1,54.1,67.946H4.521a1.466,1.466,0,0,1-1.574-1.321V8.86A1.466,1.466,0,0,1,4.521,7.539h8.137a1.139,1.139,0,0,0,1.224-1.027,1.139,1.139,0,0,0-1.224-1.027H4.521C2.3,5.485.5,7,.5,8.86V66.626C.5,68.486,2.3,70,4.521,70H54.1c2.218,0,4.022-1.514,4.022-3.375V34.784A16.156,16.156,0,0,0,63.4,31.963a12.138,12.138,0,0,0,4.725-8.918,1.123,1.123,0,0,0-1.181-1.062,1.159,1.159,0,0,0-1.265.991c-.2,4.77-3.934,8.708-9.067,10.082a1.326,1.326,0,0,0-.2.056,15.612,15.612,0,0,1-3.821.468c-7.223,0-13.1-4.931-13.1-10.991S45.365,11.6,52.588,11.6a14.837,14.837,0,0,1,7.681,2.089l-8.434,7.077ZM39.034,9.187a.38.38,0,0,1-.408.342H19.991a.38.38,0,0,1-.408-.342V4.313a2.507,2.507,0,0,1,2.693-2.259H36.342a2.507,2.507,0,0,1,2.693,2.259Zm26.329,3.132a1.794,1.794,0,0,1,2.227,0,1.178,1.178,0,0,1,0,1.868L52.948,26.471a1.794,1.794,0,0,1-2.227,0l-6.853-5.75a1.177,1.177,0,0,1,0-1.868,1.794,1.794,0,0,1,2.227,0l4.874,4.089a1.4,1.4,0,0,0,1.731,0Zm0,0" fill="#041b52"/>
    <path id="Path_1578" data-name="Path 1578" d="M122.041,188.547H107.126a1.043,1.043,0,1,0,0,2.053h14.915a1.043,1.043,0,1,0,0-2.053Zm0,0" transform="translate(-88.228 -162.769)" fill="#fe354d"/>
    <path id="Path_1579" data-name="Path 1579" d="M50.48,111.012H42.244a1.043,1.043,0,1,0,0,2.054H50.48a1.043,1.043,0,1,0,0-2.054Zm0,0" transform="translate(-33.918 -95.834)" fill="#fe354d"/>
    <path id="Path_1580" data-name="Path 1580" d="M107.126,225.448H122.04a1.043,1.043,0,1,0,0-2.053H107.126a1.043,1.043,0,1,0,0,2.053Zm0,0" transform="translate(-88.228 -192.852)" fill="#fe354d"/>
    <path id="Path_1581" data-name="Path 1581" d="M127.192,279.648H107.126a1.043,1.043,0,1,0,0,2.054h20.067a1.043,1.043,0,1,0,0-2.054Zm0,0" transform="translate(-88.228 -241.415)" fill="#fe354d"/>
    <path id="Path_1582" data-name="Path 1582" d="M107.126,316.551h10.034a1.043,1.043,0,1,0,0-2.054H107.126a1.043,1.043,0,1,0,0,2.054Zm0,0" transform="translate(-88.228 -271.499)" fill="#fe354d"/>
    <path id="Path_1583" data-name="Path 1583" d="M107.126,372.9H122.04a1.043,1.043,0,1,0,0-2.054H107.126a1.043,1.043,0,1,0,0,2.054Zm0,0" transform="translate(-88.228 -320.146)" fill="#fe354d"/>
    <path id="Path_1584" data-name="Path 1584" d="M107.126,407.749h20.067a1.043,1.043,0,1,0,0-2.053H107.126a1.043,1.043,0,1,0,0,2.053Zm0,0" transform="translate(-88.228 -350.229)" fill="#fe354d"/>
    <path id="Path_1585" data-name="Path 1585" d="M39.077,182.035c-2.726,0-4.944,1.861-4.944,4.148s2.218,4.148,4.944,4.148,4.944-1.861,4.944-4.148S41.8,182.035,39.077,182.035Zm0,6.242a2.126,2.126,0,1,1,2.5-2.094A2.324,2.324,0,0,1,39.077,188.277Zm0,0" transform="translate(-28.153 -157.147)" fill="#fe354d"/>
    <path id="Path_1586" data-name="Path 1586" d="M39.077,274.242c-2.726,0-4.944,1.861-4.944,4.148s2.218,4.148,4.944,4.148,4.944-1.861,4.944-4.148S41.8,274.242,39.077,274.242Zm0,6.243a2.127,2.127,0,1,1,2.5-2.094A2.324,2.324,0,0,1,39.077,280.485Zm0,0" transform="translate(-28.153 -236.748)" fill="#fe354d"/>
    <path id="Path_1587" data-name="Path 1587" d="M39.077,365.441c-2.726,0-4.944,1.861-4.944,4.148s2.218,4.148,4.944,4.148,4.944-1.861,4.944-4.148S41.8,365.441,39.077,365.441Zm0,6.242a2.126,2.126,0,1,1,2.5-2.094A2.324,2.324,0,0,1,39.077,371.683Zm0,0" transform="translate(-28.153 -315.478)" fill="#fe354d"/>
  </g>
</svg>
