<svg xmlns="http://www.w3.org/2000/svg" width="100" height="100" viewBox="0 0 100 100">
  <g id="quotation" transform="translate(-405 -7011)">
    <g id="Ellipse_5" data-name="Ellipse 5" transform="translate(405 7011)" fill="#fff" stroke="#cc8809" stroke-width="2">
      <circle cx="50" cy="50" r="50" stroke="none"/>
      <circle cx="50" cy="50" r="49" fill="none"/>
    </g>
    <g id="quotation-2" data-name="quotation" transform="translate(425 7038.404)">
      <g id="Group_108" data-name="Group 108" transform="translate(33.565 0)">
        <g id="Group_107" data-name="Group 107">
          <path id="Path_53" data-name="Path 53" d="M11.682,88.267c-.527,4-4.059,7.612-10.519,10.763L0,99.6,4.769,108.4l1.077-.546c13.662-6.925,20.589-16.712,20.589-29.089a15.981,15.981,0,0,0-4.029-10.963,12.715,12.715,0,0,0-9.78-4.59,11.412,11.412,0,0,0-8.557,3.594A12.666,12.666,0,0,0,4.1,84.155,13.5,13.5,0,0,0,11.682,88.267ZM5.86,68.525A8.9,8.9,0,0,1,12.625,65.7a10.2,10.2,0,0,1,7.927,3.759,13.393,13.393,0,0,1,3.4,9.313A25.719,25.719,0,0,1,19.206,93.99c-3.006,4.225-7.514,7.954-13.411,11.1l-2.389-4.411c7.186-3.766,10.827-8.292,10.827-13.468V86.1l-1.1-.125a11.138,11.138,0,0,1-7.214-3.512A10.185,10.185,0,0,1,5.86,68.525Z" transform="translate(0 -63.215)" fill="#cc8809"/>
        </g>
      </g>
      <g id="Group_110" data-name="Group 110" transform="translate(0 0)">
        <g id="Group_109" data-name="Group 109">
          <path id="Path_54" data-name="Path 54" d="M298.118,88.229c-.521,4-4.023,7.617-10.432,10.769l-1.146.563,4.651,8.812,1.087-.549C306,100.9,312.962,91.112,312.962,78.734a15.875,15.875,0,0,0-4.081-10.968,12.852,12.852,0,0,0-9.821-4.585,11.263,11.263,0,0,0-8.518,3.6,12.728,12.728,0,0,0,.087,17.34A13.457,13.457,0,0,0,298.118,88.229Zm-5.771-19.745a8.758,8.758,0,0,1,6.713-2.822,10.335,10.335,0,0,1,7.978,3.764,13.29,13.29,0,0,1,3.443,9.307,25.635,25.635,0,0,1-4.769,15.22c-3.019,4.224-7.547,7.953-13.469,11.1l-2.325-4.4c7.134-3.767,10.749-8.295,10.749-13.47V86.069l-1.1-.127a11.058,11.058,0,0,1-7.125-3.512,10.248,10.248,0,0,1-.1-13.946Z" transform="translate(-286.541 -63.181)" fill="#cc8809"/>
        </g>
      </g>
    </g>
  </g>
</svg>
