<svg id="report" xmlns="http://www.w3.org/2000/svg" width="60" height="60" viewBox="0 0 60 60">
  <g id="Group_2299" data-name="Group 2299" transform="translate(18.75 21.25)">
    <g id="Group_2298" data-name="Group 2298">
      <path id="Path_8815" data-name="Path 8815" d="M162.5,199.565V181.333H160v18.75a1.249,1.249,0,0,0,.375.884l13.25,13.258,1.765-1.766Z" transform="translate(-160 -181.333)" fill="#00265e"/>
    </g>
  </g>
  <g id="Group_2301" data-name="Group 2301" transform="translate(20 38.75)">
    <g id="Group_2300" data-name="Group 2300">
      <rect id="Rectangle_2061" data-name="Rectangle 2061" width="18.75" height="2.5" fill="#00265e"/>
    </g>
  </g>
  <g id="Group_2303" data-name="Group 2303">
    <g id="Group_2302" data-name="Group 2302">
      <path id="Path_8816" data-name="Path 8816" d="M53.75,0H6.25A6.257,6.257,0,0,0,0,6.25V25H2.5V6.25A3.75,3.75,0,0,1,6.25,2.5h47.5A3.75,3.75,0,0,1,57.5,6.25v47.5a3.75,3.75,0,0,1-3.75,3.75h-20V60h20A6.257,6.257,0,0,0,60,53.75V6.25A6.257,6.257,0,0,0,53.75,0Z" fill="#00265e"/>
    </g>
  </g>
  <g id="Group_2305" data-name="Group 2305" transform="translate(5 10)">
    <g id="Group_2304" data-name="Group 2304">
      <rect id="Rectangle_2062" data-name="Rectangle 2062" width="50" height="2.5" fill="#00265e"/>
    </g>
  </g>
  <g id="Group_2307" data-name="Group 2307" transform="translate(6.25 5)">
    <g id="Group_2306" data-name="Group 2306">
      <rect id="Rectangle_2063" data-name="Rectangle 2063" width="2.5" height="2.5" fill="#00265e"/>
    </g>
  </g>
  <g id="Group_2309" data-name="Group 2309" transform="translate(11.25 5)">
    <g id="Group_2308" data-name="Group 2308">
      <rect id="Rectangle_2064" data-name="Rectangle 2064" width="2.5" height="2.5" fill="#00265e"/>
    </g>
  </g>
  <g id="Group_2311" data-name="Group 2311" transform="translate(51.25 5)">
    <g id="Group_2310" data-name="Group 2310">
      <rect id="Rectangle_2065" data-name="Rectangle 2065" width="2.5" height="2.5" fill="#00265e"/>
    </g>
  </g>
  <g id="Group_2313" data-name="Group 2313" transform="translate(0 20)">
    <g id="Group_2312" data-name="Group 2312">
      <path id="Path_8817" data-name="Path 8817" d="M20,170.667a20,20,0,1,0,20,20A20,20,0,0,0,20,170.667Zm0,37.5a17.5,17.5,0,1,1,17.5-17.5A17.5,17.5,0,0,1,20,208.167Z" transform="translate(0 -170.667)" fill="#00265e"/>
    </g>
  </g>
  <g id="Group_2315" data-name="Group 2315" transform="translate(35 18.75)">
    <g id="Group_2314" data-name="Group 2314">
      <path id="Path_8818" data-name="Path 8818" d="M316.167,160h-17.5v2.5h16.25V165h-12.5v2.5h13.75a1.25,1.25,0,0,0,1.25-1.25v-5A1.25,1.25,0,0,0,316.167,160Z" transform="translate(-298.667 -160)" fill="#00265e"/>
    </g>
  </g>
  <g id="Group_2317" data-name="Group 2317" transform="translate(51.25 30)">
    <g id="Group_2316" data-name="Group 2316">
      <rect id="Rectangle_2066" data-name="Rectangle 2066" width="2.5" height="2.5" fill="#00265e"/>
    </g>
  </g>
  <g id="Group_2319" data-name="Group 2319" transform="translate(46.25 30)">
    <g id="Group_2318" data-name="Group 2318">
      <rect id="Rectangle_2067" data-name="Rectangle 2067" width="2.5" height="2.5" fill="#00265e"/>
    </g>
  </g>
  <g id="Group_2321" data-name="Group 2321" transform="translate(42.5 35)">
    <g id="Group_2320" data-name="Group 2320">
      <rect id="Rectangle_2068" data-name="Rectangle 2068" width="11.25" height="2.5" fill="#00265e"/>
    </g>
  </g>
  <g id="Group_2323" data-name="Group 2323" transform="translate(42.5 40)">
    <g id="Group_2322" data-name="Group 2322">
      <rect id="Rectangle_2069" data-name="Rectangle 2069" width="11.25" height="2.5" fill="#00265e"/>
    </g>
  </g>
  <g id="Group_2325" data-name="Group 2325" transform="translate(42.5 45)">
    <g id="Group_2324" data-name="Group 2324">
      <rect id="Rectangle_2070" data-name="Rectangle 2070" width="11.25" height="2.5" fill="#00265e"/>
    </g>
  </g>
</svg>
