<svg id="analytics_2_" data-name="analytics (2)" xmlns="http://www.w3.org/2000/svg" width="70" height="70" viewBox="0 0 70 70">
  <path id="Path_8437" data-name="Path 8437" d="M70,35A35,35,0,1,1,35,0,35,35,0,0,1,70,35Zm0,0" fill="#66baed"/>
  <path id="Path_8438" data-name="Path 8438" d="M126.642,0h44.516a4.385,4.385,0,0,1,4.385,4.385V46.368a4.384,4.384,0,0,1-4.385,4.384H126.642a4.384,4.384,0,0,1-4.385-4.384V4.385A4.384,4.384,0,0,1,126.642,0Zm0,0" transform="translate(-105.543)" fill="#3d4159"/>
  <path id="Path_8439" data-name="Path 8439" d="M144.684,65.936a1.528,1.528,0,0,1-1.527-1.527V22.426a1.529,1.529,0,0,1,1.527-1.527H189.2a1.529,1.529,0,0,1,1.527,1.527V64.409a1.529,1.529,0,0,1-1.527,1.527Zm0,0" transform="translate(-123.584 -18.041)" fill="#f2f0ec"/>
  <path id="Path_8440" data-name="Path 8440" d="M183.52,281.219h39.391v4.019H183.52Zm0,0" transform="translate(-158.429 -242.771)" fill="#713775"/>
  <path id="Path_8441" data-name="Path 8441" d="M200.18,46.023h4.556V74.7H200.18Zm0,0" transform="translate(-172.812 -39.731)" fill="#713775"/>
  <path id="Path_8442" data-name="Path 8442" d="M274,82.414h4.556v23.7H274Zm0,0" transform="translate(-236.543 -71.147)" fill="#f74f4f"/>
  <path id="Path_8443" data-name="Path 8443" d="M347.832,46.023h4.556V74.7h-4.556Zm0,0" transform="translate(-300.277 -39.731)" fill="#66baed"/>
  <path id="Path_8444" data-name="Path 8444" d="M421.656,124.422h4.556v17.953h-4.556Zm0,0" transform="translate(-364.008 -107.411)" fill="#3fb777"/>
  <path id="Path_8445" data-name="Path 8445" d="M329.734,426.4v7.646a34.46,34.46,0,0,1-4.272,1.909q-1.475.544-3.012.955V426.4Zm0,0" transform="translate(-278.365 -368.105)" fill="#dde8ed"/>
  <path id="Path_8446" data-name="Path 8446" d="M325.461,426.4v9.554q-1.475.544-3.012.955V426.4Zm0,0" transform="translate(-278.365 -368.105)" fill="#bfd5de"/>
  <path id="Path_8447" data-name="Path 8447" d="M336.507,397.7a2.106,2.106,0,0,1-2.106,2.106H322.449V397.7a2.106,2.106,0,0,1,2.106-2.106H334.4a2.094,2.094,0,0,1,1.488.617,2.123,2.123,0,0,1,.467.709A2.084,2.084,0,0,1,336.507,397.7Zm0,0" transform="translate(-278.364 -341.512)" fill="#eab599"/>
  <path id="Path_8448" data-name="Path 8448" d="M336.358,396.923a2.106,2.106,0,0,1-1.956,1.326H322.45V397.7a2.106,2.106,0,0,1,2.106-2.106H334.4a2.094,2.094,0,0,1,1.488.617A2.123,2.123,0,0,1,336.358,396.923Zm0,0" transform="translate(-278.365 -341.512)" fill="#f6caae"/>
  <path id="Path_8449" data-name="Path 8449" d="M93.205,367.455v4a34.741,34.741,0,0,1-12.1,4.16A34.992,34.992,0,0,1,59.364,363.4a13.016,13.016,0,0,1,11.3-8.909q.527-.042,1.064-.043H80.2a12.988,12.988,0,0,1,13.009,13.006Zm0,0" transform="translate(-51.248 -305.989)" fill="#bfd5de"/>
  <path id="Path_8450" data-name="Path 8450" d="M131.081,367.455V375.3a35.205,35.205,0,0,1-6.957.692,34.846,34.846,0,0,1-20.886-6.912v-1.622a13.007,13.007,0,0,1,13.009-13.006h1.826a13.006,13.006,0,0,1,13.009,13.006Zm0,0" transform="translate(-89.124 -305.989)" fill="#dde8ed"/>
  <path id="Path_8451" data-name="Path 8451" d="M162.214,388.773l-3.492,5.6-3.491-5.6" transform="translate(-134.008 -335.62)" fill="#f74f4f"/>
  <path id="Path_8452" data-name="Path 8452" d="M167.236,431.036a34.62,34.62,0,0,1-5.7-1.715l2.63-10.243Zm0,0" transform="translate(-139.451 -361.782)" fill="#f74f4f"/>
  <g id="Group_1141" data-name="Group 1141" transform="translate(17.077 46.61)">
    <path id="Path_8453" data-name="Path 8453" d="M132.54,348.093l-5.856,3.254-1.781-8.285,3.638-2.143" transform="translate(-124.903 -340.918)" fill="#bfd5de"/>
    <path id="Path_8454" data-name="Path 8454" d="M180.762,348.093l5.855,3.254,1.781-8.285-3.639-2.143" transform="translate(-173.125 -340.918)" fill="#bfd5de"/>
    <path id="Path_8455" data-name="Path 8455" d="M219.434,446.453h7V448.6h-7Zm0,0" transform="translate(-206.51 -432.024)" fill="#bfd5de"/>
  </g>
  <path id="Path_8456" data-name="Path 8456" d="M156.125,317.8v5.7a4.641,4.641,0,0,1-9.281,0v-5.7Zm0,0" transform="translate(-126.767 -274.352)" fill="#eab599"/>
  <path id="Path_8457" data-name="Path 8457" d="M173.7,356.816v.361a4.64,4.64,0,0,1-3.268,4.433,4.639,4.639,0,0,1-3.23-3.829q.465.029.935.029a16.052,16.052,0,0,0,5.564-.994Zm0,0" transform="translate(-144.34 -308.033)" fill="#f6caae"/>
  <path id="Path_8458" data-name="Path 8458" d="M33.178,222.284a4.315,4.315,0,1,1-3.625-4.26A4.316,4.316,0,0,1,33.178,222.284Zm0,0" transform="translate(-21.191 -188.168)" fill="#f6caae"/>
  <path id="Path_8459" data-name="Path 8459" d="M61.178,222.635a4.316,4.316,0,0,1-3.625,4.26,16.137,16.137,0,0,1,0-8.52A4.316,4.316,0,0,1,61.178,222.635Zm0,0" transform="translate(-49.19 -188.519)" fill="#eab599"/>
  <path id="Path_8460" data-name="Path 8460" d="M47.917,239.8a1.542,1.542,0,1,1-1.542-1.542A1.542,1.542,0,0,1,47.917,239.8Zm0,0" transform="translate(-38.703 -205.68)" fill="#eab599"/>
  <path id="Path_8461" data-name="Path 8461" d="M273.895,222.284a4.314,4.314,0,1,0,3.624-4.26A4.316,4.316,0,0,0,273.895,222.284Zm0,0" transform="translate(-236.448 -188.168)" fill="#f6caae"/>
  <path id="Path_8462" data-name="Path 8462" d="M273.895,222.635a4.316,4.316,0,0,0,3.624,4.26,16.122,16.122,0,0,0,0-8.52A4.316,4.316,0,0,0,273.895,222.635Zm0,0" transform="translate(-236.448 -188.519)" fill="#eab599"/>
  <path id="Path_8463" data-name="Path 8463" d="M95.46,86.65v6.114a16.056,16.056,0,0,1-13.48,15.848l-.079.013a15.839,15.839,0,0,1-2.5.194A16.056,16.056,0,0,1,63.347,92.765V86.65A16.046,16.046,0,0,1,79.4,70.593h0A16.042,16.042,0,0,1,95.46,86.65Zm0,0" transform="translate(-54.686 -60.942)" fill="#eab599"/>
  <path id="Path_8464" data-name="Path 8464" d="M297.264,239.8a1.542,1.542,0,1,1-1.542-1.542A1.542,1.542,0,0,1,297.264,239.8Zm0,0" transform="translate(-253.96 -205.68)" fill="#eab599"/>
  <path id="Path_8465" data-name="Path 8465" d="M127.031,87.875v6.114a16.056,16.056,0,0,1-13.48,15.848l-.079.013A16.058,16.058,0,0,1,99.917,93.989V87.875a16.06,16.06,0,0,1,13.557-15.863,16.06,16.06,0,0,1,13.556,15.863Zm0,0" transform="translate(-86.257 -62.166)" fill="#f6caae"/>
  <path id="Path_8466" data-name="Path 8466" d="M132.775,214.419a1.821,1.821,0,1,1-1.822-1.822A1.821,1.821,0,0,1,132.775,214.419Zm0,0" transform="translate(-111.478 -183.532)" fill="#3d4159"/>
  <path id="Path_8467" data-name="Path 8467" d="M209.443,214.419a1.821,1.821,0,1,1-1.822-1.822A1.821,1.821,0,0,1,209.443,214.419Zm0,0" transform="translate(-177.664 -183.532)" fill="#3d4159"/>
  <path id="Path_8468" data-name="Path 8468" d="M143.205,218.643a.78.78,0,1,1-.78-.78A.78.78,0,0,1,143.205,218.643Zm0,0" transform="translate(-122.279 -188.077)" fill="#fff"/>
  <path id="Path_8469" data-name="Path 8469" d="M220.526,218.643a.781.781,0,1,1-.78-.78A.78.78,0,0,1,220.526,218.643Zm0,0" transform="translate(-189.028 -188.077)" fill="#fff"/>
  <path id="Path_8470" data-name="Path 8470" d="M166.147,244.318H162.5a.786.786,0,0,1,0-1.572h3.643a.786.786,0,1,1,0,1.572Zm0,0" transform="translate(-139.608 -209.558)" fill="#eab599"/>
  <path id="Path_8471" data-name="Path 8471" d="M153.732,275.755a8.113,8.113,0,0,1-3.915-1.011.714.714,0,1,1,.688-1.252,6.664,6.664,0,0,0,6.453,0,.714.714,0,1,1,.688,1.252A8.111,8.111,0,0,1,153.732,275.755Zm0,0" transform="translate(-129.015 -236.024)" fill="#eab599"/>
  <path id="Path_8472" data-name="Path 8472" d="M95.46,65.826v6.263H92.472v-4.9L70.9,63.176l-4.564-.849v9.761H63.347V65.826A12.926,12.926,0,0,1,76.273,52.9h6.261c.17,0,.34,0,.51.012A12.923,12.923,0,0,1,95.46,65.826Zm0,0" transform="translate(-54.687 -45.666)" fill="#e8c934"/>
  <path id="Path_8473" data-name="Path 8473" d="M143.15,65.9v6.263h-2.989v-4.9L118.59,63.25a12.377,12.377,0,0,1,24.56,2.65Zm0,0" transform="translate(-102.376 -45.74)" fill="#ffe152"/>
</svg>
