<svg xmlns="http://www.w3.org/2000/svg" width="70.003" height="70" viewBox="0 0 70.003 70">
  <g id="startup" transform="translate(0 -0.011)">
    <path id="Path_8529" data-name="Path 8529" d="M34.115,277.545l-7.941,17.217a1.207,1.207,0,0,1-2.195-.006l-2.324-5.111a1.207,1.207,0,0,0-2.072-.215l-6.539,6.7a1.207,1.207,0,0,1-2.179-.713v-9c0-.666.01-.656-.656-.656h-9c-1.166,0-1.655-2.041-.713-2.731l6.7-5.988a1.207,1.207,0,0,0-.215-2.072l-5.111-2.323a1.207,1.207,0,0,1,0-2.2l17.217-7.941,13.5,2.734Zm0,0" transform="translate(0 -226.609)" fill="#f0c419"/>
    <path id="Path_8530" data-name="Path 8530" d="M100.245,278.734,88.55,284.406a1.207,1.207,0,0,0,.028,2.185l4.957,2.253-6.228,5.021a.6.6,0,0,0,.379,1.074h2.525a.656.656,0,0,1,.656.657v2.524a.6.6,0,0,0,1.075.379l5.019-6.228,2.254,4.96a1.207,1.207,0,0,0,2.184.028l5.672-11.695Zm0,0" transform="translate(-75.176 -240.617)" fill="#f29c1f"/>
    <path id="Path_8531" data-name="Path 8531" d="M62.638,195.361l2.122,6.947a4.828,4.828,0,0,1-.6,4.085L55.708,218.33a1.207,1.207,0,0,1-2.209-.6l.912-11.006a7.218,7.218,0,0,0-.665-2.633l-3.413-7.313-.18-.362-5.669-5.672-.362-.18-7.315-3.409a7.218,7.218,0,0,0-2.633-.665l-11.005.911a1.207,1.207,0,0,1-.6-2.208L34.5,176.741a4.827,4.827,0,0,1,4.086-.6l6.946,2.116Zm0,0" transform="translate(-19.017 -151.866)" fill="#c03a2b"/>
    <path id="Path_8532" data-name="Path 8532" d="M147,287l-.307.222L138.12,293.5a2.807,2.807,0,0,1-3.926-3.926L140.47,281l.222-.307Zm0,0" transform="translate(-115.374 -242.31)" fill="#e64c3c"/>
    <path id="Path_8533" data-name="Path 8533" d="M215.886,33c-11.307,11.307-25.448,15.514-31.575,9.387s-1.92-20.268,9.387-31.576c5.974-5.969,15.2-9,22.223-10.194a41.522,41.522,0,0,1,5.846-.6,4.811,4.811,0,0,1,4.917,4.917,41.461,41.461,0,0,1-.6,5.846C224.89,17.8,221.856,27.024,215.887,33Zm0,0" transform="translate(-156.682 0)" fill="#4482c3"/>
    <path id="Path_8534" data-name="Path 8534" d="M443.453,10.775a20.578,20.578,0,0,1-5.926-4.234A20.562,20.562,0,0,1,433.293.616a41.522,41.522,0,0,1,5.846-.6,4.811,4.811,0,0,1,4.917,4.917,41.458,41.458,0,0,1-.6,5.846Zm0,0" transform="translate(-374.055)" fill="#c03a2b"/>
    <path id="Path_8535" data-name="Path 8535" d="M388.667,67.234a4.828,4.828,0,1,1-4.828-4.827A4.828,4.828,0,0,1,388.667,67.234Zm0,0" transform="translate(-327.194 -53.865)" fill="#a5a5a4"/>
    <path id="Path_8536" data-name="Path 8536" d="M269.548,144.245A8.448,8.448,0,1,1,261.1,135.8,8.448,8.448,0,0,1,269.548,144.245Zm0,0" transform="translate(-218.11 -117.222)" fill="#a5a5a4"/>
    <path id="Path_8537" data-name="Path 8537" d="M295.206,174.73a3.621,3.621,0,1,1-3.621-3.62A3.621,3.621,0,0,1,295.206,174.73Zm0,0" transform="translate(-248.595 -147.706)" fill="#5e5f62"/>
  </g>
</svg>
