<svg id="add-user" xmlns="http://www.w3.org/2000/svg" width="70" height="70" viewBox="0 0 70 70">
  <path id="Path_8427" data-name="Path 8427" d="M167.3,17.354c0,8.9-6.854,21.583-15.312,21.583S136.533,26.25,136.533,17.354C136.533,4.521,143.387,0,151.846,0,160.45,0,167.3,4.521,167.3,17.354Z" transform="translate(-117.866)" fill="#415a6b"/>
  <g id="Group_1138" data-name="Group 1138" transform="translate(17.534 9.042)">
    <path id="Path_8428" data-name="Path 8428" d="M163.533,66.133a15.661,15.661,0,0,1-13.271,6.854,7.1,7.1,0,0,1-1.75-.146,21.818,21.818,0,0,0-1.312,7.583c0,10.063,6.271,18.229,13.854,18.229s13.854-8.167,13.854-18.229a21.73,21.73,0,0,0-2.479-10.354A15.68,15.68,0,0,1,163.533,66.133Z" transform="translate(-144.609 -66.133)" fill="#ffd15c"/>
    <path id="Path_8429" data-name="Path 8429" d="M332.446,140.173c-.437,3.062-2.042,5.25-3.646,4.813-1.6-.292-2.479-3.062-2.042-6.125s2.042-5.25,3.646-4.812C332.008,134.34,332.883,137.111,332.446,140.173Z" transform="translate(-299.521 -124.715)" fill="#ffd15c"/>
    <path id="Path_8430" data-name="Path 8430" d="M128.358,140.173c.438,3.063,2.042,5.25,3.646,4.813s2.479-3.062,2.042-6.125-2.042-5.25-3.646-4.812C128.8,134.34,127.921,137.111,128.358,140.173Z" transform="translate(-128.246 -124.715)" fill="#ffd15c"/>
  </g>
  <g id="Group_1139" data-name="Group 1139" transform="translate(0 44.188)">
    <path id="Path_8431" data-name="Path 8431" d="M22.458,323.2l11.521,25.813H0C0,333.263,9.333,325.679,22.458,323.2Z" transform="translate(0 -323.2)" fill="#415a6b"/>
    <path id="Path_8432" data-name="Path 8432" d="M282.658,349.013H248.533L260.054,323.2C273.325,325.679,282.658,333.263,282.658,349.013Z" transform="translate(-214.554 -323.2)" fill="#415a6b"/>
  </g>
  <path id="Path_8433" data-name="Path 8433" d="M175.787,315.733a57.4,57.4,0,0,0-11.521,1.021l11.521,25.813,11.521-25.812A57.413,57.413,0,0,0,175.787,315.733Z" transform="translate(-141.808 -272.566)" fill="#f3f3f3"/>
  <g id="Group_1140" data-name="Group 1140" transform="translate(29.604 43.167)">
    <path id="Path_8434" data-name="Path 8434" d="M222.95,323.171l2.479-2.771-4.521-4.667-4.375,4.667,2.479,2.771Z" transform="translate(-216.533 -315.733)" fill="#66c6b9"/>
    <path id="Path_8435" data-name="Path 8435" d="M218.667,380.2l4.083,9.333,4.229-9.333-2.187-10.062h-3.937Z" transform="translate(-218.375 -362.695)" fill="#66c6b9"/>
  </g>
  <circle id="Ellipse_414" data-name="Ellipse 414" cx="15.021" cy="15.021" r="15.021" transform="translate(39.958 39.958)" fill="#f3705a"/>
  <path id="Path_8436" data-name="Path 8436" d="M349.727,337.675a2.587,2.587,0,0,1-2.479,2.625h-5.1v5.1a2.479,2.479,0,1,1-4.958,0v-5.1h-5.1a2.494,2.494,0,0,1-2.479-2.625,2.458,2.458,0,0,1,2.479-2.479h5.1v-5.1a2.587,2.587,0,0,1,2.479-2.625,2.494,2.494,0,0,1,2.479,2.625v5.1h5.1A2.371,2.371,0,0,1,349.727,337.675Z" transform="translate(-284.539 -282.696)" fill="#f3f3f3"/>
</svg>
