<svg id="budget" xmlns="http://www.w3.org/2000/svg" width="70" height="70" viewBox="0 0 70 70">
  <path id="Path_8474" data-name="Path 8474" d="M84.246,117.644A14.131,14.131,0,1,1,70.123,104,13.89,13.89,0,0,1,84.246,117.644Zm0,0" transform="translate(-47.404 -88.576)" fill="#ea9d2d"/>
  <path id="Path_8475" data-name="Path 8475" d="M109.193,148.305A8.6,8.6,0,1,1,100.6,140,8.454,8.454,0,0,1,109.193,148.305Zm0,0" transform="translate(-77.877 -119.237)" fill="#f3af3e"/>
  <path id="Path_8476" data-name="Path 8476" d="M131.365,156.746v-.379a3.2,3.2,0,0,0-2.456-3.063V152h-2.456v1.305a3.153,3.153,0,0,0,.037,6.159l1.786.429a.814.814,0,0,1,.619.884.831.831,0,0,1-.821.714h-.786a.823.823,0,0,1-.835-.807v-.379H124v.379a3.2,3.2,0,0,0,2.456,3.063v1.3h2.456v-1.305a3.153,3.153,0,0,0-.037-6.159l-1.786-.429a.814.814,0,0,1-.619-.884.831.831,0,0,1,.821-.714h.786a.823.823,0,0,1,.835.807v.379Zm0,0" transform="translate(-104.961 -129.458)" fill="#da922a"/>
  <path id="Path_8477" data-name="Path 8477" d="M64.561,347.864H44.912v-1.186H40v-9.492h4.912V336H64.561Zm0,0" transform="translate(-33.86 -286.169)" fill="#d9d9d9"/>
  <path id="Path_8478" data-name="Path 8478" d="M40,392H64.561v2.373H40Zm0,0" transform="translate(-33.86 -333.864)" fill="#cdcdcd"/>
  <path id="Path_8479" data-name="Path 8479" d="M72,408H97.789v9.492H72Zm0,0" transform="translate(-60.947 -347.492)" fill="#f3af3e"/>
  <path id="Path_8480" data-name="Path 8480" d="M72,456H96.561v2.373H72Zm0,0" transform="translate(-60.947 -388.373)" fill="#ea9d2d"/>
  <path id="Path_8481" data-name="Path 8481" d="M64,344h2.456v9.492H64Zm0,0" transform="translate(-54.175 -292.983)" fill="#cdcdcd"/>
  <path id="Path_8482" data-name="Path 8482" d="M96,344h2.456v9.492H96Zm0,0" transform="translate(-81.263 -292.983)" fill="#cdcdcd"/>
  <path id="Path_8483" data-name="Path 8483" d="M128,344h2.456v9.492H128Zm0,0" transform="translate(-108.351 -292.983)" fill="#cdcdcd"/>
  <path id="Path_8484" data-name="Path 8484" d="M160,344h2.456v9.492H160Zm0,0" transform="translate(-135.439 -292.983)" fill="#cdcdcd"/>
  <path id="Path_8485" data-name="Path 8485" d="M72,280H97.789v9.492H72Zm0,0" transform="translate(-60.947 -238.475)" fill="#f3af3e"/>
  <g id="Group_1142" data-name="Group 1142" transform="translate(11.053 41.525)">
    <path id="Path_8486" data-name="Path 8486" d="M72,328H96.561v2.373H72Zm0,0" transform="translate(-72 -320.881)" fill="#ea9d2d"/>
    <path id="Path_8487" data-name="Path 8487" d="M96,408h2.456v9.492H96Zm0,0" transform="translate(-92.316 -389.017)" fill="#ea9d2d"/>
    <path id="Path_8488" data-name="Path 8488" d="M128,408h2.456v9.492H128Zm0,0" transform="translate(-119.404 -389.017)" fill="#ea9d2d"/>
    <path id="Path_8489" data-name="Path 8489" d="M160,408h2.456v9.492H160Zm0,0" transform="translate(-146.491 -389.017)" fill="#ea9d2d"/>
    <path id="Path_8490" data-name="Path 8490" d="M192,408h2.456v9.492H192Zm0,0" transform="translate(-173.579 -389.017)" fill="#ea9d2d"/>
    <path id="Path_8491" data-name="Path 8491" d="M96,280h2.456v9.492H96Zm0,0" transform="translate(-92.316 -280)" fill="#ea9d2d"/>
    <path id="Path_8492" data-name="Path 8492" d="M128,280h2.456v9.492H128Zm0,0" transform="translate(-119.404 -280)" fill="#ea9d2d"/>
    <path id="Path_8493" data-name="Path 8493" d="M160,280h2.456v9.492H160Zm0,0" transform="translate(-146.491 -280)" fill="#ea9d2d"/>
    <path id="Path_8494" data-name="Path 8494" d="M192,280h2.456v9.492H192Zm0,0" transform="translate(-173.579 -280)" fill="#ea9d2d"/>
  </g>
  <path id="Path_8495" data-name="Path 8495" d="M16,120h2.456v2.373H16Zm0,0" transform="translate(-13.544 -102.203)" fill="#fbd699"/>
  <path id="Path_8496" data-name="Path 8496" d="M16,152h2.456v2.373H16Zm0,0" transform="translate(-13.544 -129.458)" fill="#fbd699"/>
  <path id="Path_8497" data-name="Path 8497" d="M32,136h2.456v2.373H32Zm0,0" transform="translate(-27.088 -115.831)" fill="#fbd699"/>
  <path id="Path_8498" data-name="Path 8498" d="M0,136H2.456v2.373H0Zm0,0" transform="translate(0 -115.831)" fill="#fbd699"/>
  <path id="Path_8499" data-name="Path 8499" d="M152,0h2.456V2.373H152Zm0,0" transform="translate(-128.667)" fill="#f7ba61"/>
  <path id="Path_8500" data-name="Path 8500" d="M152,48h2.456v2.373H152Zm0,0" transform="translate(-128.667 -40.881)" fill="#f7ba61"/>
  <path id="Path_8501" data-name="Path 8501" d="M176,24h2.456v2.373H176Zm0,0" transform="translate(-148.982 -20.441)" fill="#f7ba61"/>
  <path id="Path_8502" data-name="Path 8502" d="M128,24h2.456v2.373H128Zm0,0" transform="translate(-108.351 -20.441)" fill="#f7ba61"/>
  <path id="Path_8503" data-name="Path 8503" d="M200,56h28.246V89.22H200Zm0,0" transform="translate(-169.298 -47.695)" fill="#6b9777"/>
  <path id="Path_8504" data-name="Path 8504" d="M250.421,99.864H232V92.746A4.831,4.831,0,0,0,236.912,88h8.6a4.831,4.831,0,0,0,4.912,4.746Zm0,0" transform="translate(-196.386 -74.949)" fill="#85bc94"/>
  <path id="Path_8505" data-name="Path 8505" d="M275.07,136a3.019,3.019,0,0,1,3.07,2.966v1.78H272v-1.78A3.019,3.019,0,0,1,275.07,136Zm0,0" transform="translate(-230.246 -115.831)" fill="#ea9d2d"/>
  <path id="Path_8506" data-name="Path 8506" d="M232,168h34.386v45.085H232Zm0,0" transform="translate(-196.386 -143.085)" fill="#f9adb1"/>
  <path id="Path_8507" data-name="Path 8507" d="M264,200h24.561v7.119H264Zm0,0" transform="translate(-223.474 -170.339)" fill="#8aced8"/>
  <path id="Path_8508" data-name="Path 8508" d="M264,240h24.561v1.186H264Zm0,0" transform="translate(-223.474 -204.407)" fill="#6fbbc6"/>
  <path id="Path_8509" data-name="Path 8509" d="M264,280h4.912v4.746H264Zm0,0" transform="translate(-223.474 -238.475)" fill="#69b0bb"/>
  <path id="Path_8510" data-name="Path 8510" d="M264,304h4.912v1.186H264Zm0,0" transform="translate(-223.474 -258.915)" fill="#64a8b2"/>
  <path id="Path_8511" data-name="Path 8511" d="M264,344h4.912v4.746H264Zm0,0" transform="translate(-223.474 -292.983)" fill="#69b0bb"/>
  <path id="Path_8512" data-name="Path 8512" d="M328,344h4.912v4.746H328Zm0,0" transform="translate(-277.649 -292.983)" fill="#69b0bb"/>
  <path id="Path_8513" data-name="Path 8513" d="M392,344h4.912v4.746H392Zm0,0" transform="translate(-331.825 -292.983)" fill="#69b0bb"/>
  <path id="Path_8514" data-name="Path 8514" d="M264,408h4.912v4.746H264Zm0,0" transform="translate(-223.474 -347.492)" fill="#69b0bb"/>
  <path id="Path_8515" data-name="Path 8515" d="M328,408h4.912v4.746H328Zm0,0" transform="translate(-277.649 -347.492)" fill="#69b0bb"/>
  <path id="Path_8516" data-name="Path 8516" d="M392,408h4.912v4.746H392Zm0,0" transform="translate(-331.825 -347.492)" fill="#ea6b65"/>
  <path id="Path_8517" data-name="Path 8517" d="M328,280h4.912v4.746H328Zm0,0" transform="translate(-277.649 -238.475)" fill="#69b0bb"/>
  <path id="Path_8518" data-name="Path 8518" d="M392,280h4.912v4.746H392Zm0,0" transform="translate(-331.825 -238.475)" fill="#69b0bb"/>
  <path id="Path_8519" data-name="Path 8519" d="M384,216h2.456v2.373H384Zm0,0" transform="translate(-325.053 -183.966)" fill="#6fbbc6"/>
  <path id="Path_8520" data-name="Path 8520" d="M352,216h2.456v2.373H352Zm0,0" transform="translate(-297.965 -183.966)" fill="#6fbbc6"/>
  <path id="Path_8521" data-name="Path 8521" d="M328,304h4.912v1.186H328Zm0,0" transform="translate(-277.649 -258.915)" fill="#64a8b2"/>
  <path id="Path_8522" data-name="Path 8522" d="M392,304h4.912v1.186H392Zm0,0" transform="translate(-331.825 -258.915)" fill="#64a8b2"/>
  <path id="Path_8523" data-name="Path 8523" d="M392,368h4.912v1.186H392Zm0,0" transform="translate(-331.825 -313.424)" fill="#64a8b2"/>
  <path id="Path_8524" data-name="Path 8524" d="M328,368h4.912v1.186H328Zm0,0" transform="translate(-277.649 -313.424)" fill="#64a8b2"/>
  <path id="Path_8525" data-name="Path 8525" d="M264,368h4.912v1.186H264Zm0,0" transform="translate(-223.474 -313.424)" fill="#64a8b2"/>
  <path id="Path_8526" data-name="Path 8526" d="M264,432h4.912v1.186H264Zm0,0" transform="translate(-223.474 -367.932)" fill="#64a8b2"/>
  <path id="Path_8527" data-name="Path 8527" d="M328,432h4.912v1.186H328Zm0,0" transform="translate(-277.649 -367.932)" fill="#64a8b2"/>
  <path id="Path_8528" data-name="Path 8528" d="M392,432h4.912v1.186H392Zm0,0" transform="translate(-331.825 -367.932)" fill="#e06661"/>
</svg>
